PathFileType	4	(X/Y/Z)	C:\Users\86182\Documents\cortex\Trimmed_M1_L1.trc
DataRate	CameraRate	NumFrames	NumMarkers	Units	OrigDataRate	OrigDataStartFrame	OrigNumFrames
100.00	100.00	      115	2	mm	100.00	1	      1001
Frame#	Time	gripper			box			
		X1	Y1	Z1	X2	Y2	Z2	

1	0.000	198.45221	193.05476	193.40251	201.59148	192.28925	59.19713	
2	0.010	198.37943	193.04103	193.38048	201.58618	192.29070	59.19905	
3	0.020	198.44922	193.06429	193.38812	201.58618	192.29070	59.19905	
4	0.030	198.44246	193.02338	193.37262	201.58618	192.29070	59.19905	
5	0.040	198.38013	193.05064	193.39366	201.58618	192.29070	59.19905	
6	0.050	198.43141	193.04147	193.40654	201.57732	192.29369	59.20148	
7	0.060	198.39262	193.05138	193.40056	201.58618	192.29070	59.19905	
8	0.070	198.35091	193.03731	193.39915	201.58618	192.29070	59.19905	
9	0.080	198.49789	193.05800	193.38261	201.57732	192.29369	59.20148	
10	0.090	198.42827	193.06339	193.39101	201.55965	192.29965	59.20635	
11	0.100	198.43976	193.03400	193.40654	201.58618	192.29070	59.19905	
12	0.110	198.47369	193.07367	193.41150	201.58618	192.29070	59.19905	
13	0.120	198.42772	193.04945	193.39842	201.58618	192.29070	59.19905	
14	0.130	198.44246	193.08072	193.42215	201.58618	192.29070	59.19905	
15	0.140	198.43065	193.06596	193.40974	201.58618	192.29070	59.19905	
16	0.150	198.48244	193.04182	193.39047	201.58618	192.29070	59.19905	
17	0.160	198.44992	193.05040	193.40843	201.58173	192.29221	59.20028	
18	0.170	198.44946	193.06337	193.39322	201.58618	192.29070	59.19905	
19	0.180	198.42075	193.05569	193.40509	201.58618	192.29070	59.19905	
20	0.190	198.42009	193.03922	193.37701	201.59148	192.28925	59.19713	
21	0.200	198.40730	193.04979	193.39624	201.55081	192.30263	59.20877	
22	0.210	198.40108	193.02792	193.39665	201.58618	192.29070	59.19905	
23	0.220	198.37914	193.05939	193.39931	201.58618	192.29070	59.19905	
24	0.230	198.43292	193.03995	193.39084	201.58618	192.29070	59.19905	
25	0.240	198.42068	193.04056	193.40459	201.58618	192.29070	59.19905	
26	0.250	198.43188	193.05110	193.38431	201.58618	192.29070	59.19905	
27	0.260	198.42531	193.03018	193.39084	201.58618	192.29070	59.19905	
28	0.270	198.38222	193.03711	193.40617	201.58618	192.29070	59.19905	
29	0.280	198.40117	193.04327	193.40022	201.58618	192.29070	59.19905	
30	0.290	198.43747	193.06013	193.41687	201.55081	192.30263	59.20877	
31	0.300	198.41273	193.05887	193.39981	201.58618	192.29070	59.19905	
32	0.310	198.40254	193.04504	193.40186	201.58618	192.29070	59.19905	
33	0.320	198.42101	193.07422	193.40045	201.58618	192.29070	59.19905	
34	0.330	198.41180	193.06337	193.39500	201.58618	192.29070	59.19905	
35	0.340	198.40959	193.06201	193.41451	201.58618	192.29070	59.19905	
36	0.350	198.37976	193.05486	193.39078	201.58618	192.29070	59.19905	
37	0.360	198.43677	193.06778	193.39163	201.58618	192.29070	59.19905	
38	0.370	198.40598	193.04962	193.39690	201.59148	192.28925	59.19713	
39	0.380	198.38718	193.06261	193.39369	201.58618	192.29070	59.19905	
40	0.390	198.38603	193.07544	193.41916	201.59682	192.28780	59.19517	
41	0.400	198.40991	193.05960	193.39903	201.58618	192.29070	59.19905	
42	0.410	198.38817	193.04820	193.40477	201.58958	192.29094	59.19619	
43	0.420	198.35779	193.06810	193.41077	201.58618	192.29070	59.19905	
44	0.430	198.42125	193.05351	193.37869	201.58618	192.29070	59.19905	
45	0.440	198.41054	193.06265	193.40088	201.58173	192.29221	59.20028	
46	0.450	198.39063	193.05864	193.38562	201.58618	192.29070	59.19905	
47	0.460	198.43588	193.05586	193.40945	201.56401	192.29817	59.20515	
48	0.470	198.43243	193.07735	193.39447	201.58618	192.29070	59.19905	
49	0.480	198.44328	193.04327	193.39421	201.60216	192.28636	59.19321	
50	0.490	198.43079	193.06281	193.39784	201.58618	192.29070	59.19905	
51	0.500	198.38924	193.06856	193.41354	201.58618	192.29070	59.19905	
52	0.510	198.41879	193.07570	193.40781	201.58618	192.29070	59.19905	
53	0.520	198.37590	193.03592	193.39333	201.57732	192.29369	59.20148	
54	0.530	198.42982	193.05304	193.40439	201.56401	192.29817	59.20515	
55	0.540	198.40787	193.08269	193.41399	201.58618	192.29070	59.19905	
56	0.550	198.48044	193.03656	193.40147	201.58618	192.29070	59.19905	
57	0.560	198.41316	193.05603	193.40800	201.58618	192.29070	59.19905	
58	0.570	198.45972	193.06790	193.40546	201.58618	192.29070	59.19905	
59	0.580	198.44940	193.05659	193.40694	201.58618	192.29070	59.19905	
60	0.590	198.40012	193.02785	193.39902	201.58618	192.29070	59.19905	
61	0.600	198.46918	193.04652	193.38632	201.56401	192.29817	59.20515	
62	0.610	198.45349	193.04788	193.38989	201.61821	192.28200	59.18732	
63	0.620	198.40625	193.03470	193.40349	201.58618	192.29070	59.19905	
64	0.630	198.42368	193.04868	193.41307	201.58618	192.29070	59.19905	
65	0.640	198.38033	193.04837	193.40666	201.58618	192.29070	59.19905	
66	0.650	198.40820	193.02199	193.39705	201.57732	192.29369	59.20148	
67	0.660	198.42410	193.05359	193.40997	201.57732	192.29369	59.20148	
68	0.670	198.43199	193.06349	193.41104	201.58618	192.29070	59.19905	
69	0.680	198.37576	193.02979	193.39960	201.58618	192.29070	59.19905	
70	0.690	198.40584	193.05362	193.41142	201.58173	192.29221	59.20028	
71	0.700	198.46713	193.04504	193.37384	201.58618	192.29070	59.19905	
72	0.710	198.41243	193.04410	193.40077	201.58618	192.29070	59.19905	
73	0.720	198.43747	193.04161	193.38971	201.55081	192.30263	59.20877	
74	0.730	198.46632	193.04498	193.39441	201.58618	192.29070	59.19905	
75	0.740	198.45081	193.04939	193.40855	201.55965	192.29965	59.20635	
76	0.750	198.46532	193.06056	193.40662	201.58513	192.29245	59.19741	
77	0.760	198.43315	193.04140	193.40918	201.58618	192.29070	59.19905	
78	0.770	198.45020	193.05981	193.39288	201.58618	192.29070	59.19905	
79	0.780	198.41516	193.06497	193.39694	201.52895	192.31000	59.21479	
80	0.790	198.36729	193.03635	193.39696	201.58618	192.29070	59.19905	
81	0.800	198.39569	193.04456	193.39418	201.58618	192.29070	59.19905	
82	0.810	198.45345	193.06339	193.39716	201.58618	192.29070	59.19905	
83	0.820	198.44717	193.05000	193.39575	201.58618	192.29070	59.19905	
84	0.830	198.43996	193.04677	193.39430	201.58618	192.29070	59.19905	
85	0.840	198.41510	193.06490	193.37880	201.58618	192.29070	59.19905	
86	0.850	198.46248	193.02911	193.37921	201.58618	192.29070	59.19905	
87	0.860	198.42747	193.05861	193.40981	201.58618	192.29070	59.19905	
88	0.870	198.41624	193.04640	193.39879	201.58618	192.29070	59.19905	
89	0.880	198.43816	193.05304	193.39420	201.58618	192.29070	59.19905	
90	0.890	198.40381	193.05894	193.38968	201.58618	192.29070	59.19905	
91	0.900	198.38092	193.04674	193.40883	201.58618	192.29070	59.19905	
92	0.910	198.42664	193.06311	193.39598	201.58618	192.29070	59.19905	
93	0.920	198.39069	193.06099	193.39365	201.58618	192.29070	59.19905	
94	0.930	198.44936	193.06367	193.40228	201.55081	192.30263	59.20877	
95	0.940	198.40419	193.05411	193.40685	201.58618	192.29070	59.19905	
96	0.950	198.46844	193.03458	193.38609	201.58173	192.29221	59.20028	
97	0.960	198.42993	193.05466	193.38834	201.58618	192.29070	59.19905	
98	0.970	198.38023	193.06557	193.40041	201.55965	192.29965	59.20635	
99	0.980	198.41040	193.07729	193.39728	201.58618	192.29070	59.19905	
100	0.990	198.37419	193.06082	193.38303	201.58618	192.29070	59.19905	
101	1.000	198.35133	193.06615	193.41058	201.58618	192.29070	59.19905	
102	1.010	198.44870	193.07613	193.38432	201.58618	192.29070	59.19905	
103	1.020	198.37852	193.07698	193.38983	201.58618	192.29070	59.19905	
104	1.030	198.38348	193.06609	193.39043	201.58618	192.29070	59.19905	
105	1.040	198.40565	193.06966	193.39328	201.58618	192.29070	59.19905	
106	1.050	198.36754	193.05777	193.40500	201.58618	192.29070	59.19905	
107	1.060	198.41710	193.07443	193.38965	201.56845	192.29669	59.20392	
108	1.070	198.35713	193.06261	193.40511	201.58618	192.29070	59.19905	
109	1.080	198.40962	193.04272	193.37228	201.58618	192.29070	59.19905	
110	1.090	198.42746	193.06285	193.41154	201.58618	192.29070	59.19905	
111	1.100	198.42506	193.04504	193.39330	201.58618	192.29070	59.19905	
112	1.110	198.38747	193.01134	193.39549	201.58173	192.29221	59.20028	
113	1.120	198.42572	193.08476	193.41861	201.57286	192.29520	59.20271	
114	1.130	198.38364	193.04155	193.39822	201.58618	192.29070	59.19905	
115	1.140	198.46304	193.07553	193.39655	201.58173	192.29221	59.20028	
